<svg id="Layer_1" xmlns="http://www.w3.org/2000/svg" xmlns:xlink="http://www.w3.org/1999/xlink" viewBox="0 0 500 478.6"><style>.st0{fill:#003473;} .st1{fill:#D32020;} .st2{fill:#FD9B00;} .st3{fill:#FFFFFF;} .st4{opacity:0.4;clip-path:url(#SVGID_2_);} .st5{fill:#004D90;} .st6{fill:#FEA508;}</style><path class="st0" d="M128.9 135.1L484 210.6c10.9 2.3 17.9 13 15.5 23.9L451 462.6c-2.3 10.9-13 17.9-23.9 15.5L72 402.7c-10.9-2.3-17.9-13-15.5-23.9L105 150.7c2.3-10.9 13-17.9 23.9-15.6z"/><ellipse transform="rotate(-78 218.617 294.03)" class="st1" cx="218.6" cy="294" rx="90.5" ry="90.5"/><path class="st2" d="M356.4 230.7c-22.9-4.9-45.6-.6-64.4 10.3-3.9 2.2-7.5 4.7-10.9 7.4l17.9 3.8c1.8 3.5 3.4 7.1 4.7 10.8l-31.4-6.7c-2.5 2.6-4.9 5.4-7.1 8.3l41.6 8.8c.8 3.4 1.4 6.7 1.8 10.1l-49.1-10.4c-1.7 2.9-3.2 5.8-4.5 8.8l54.2 11.5c.1 6.3-.6 12.7-2 19.2-2.1 9.9-5.7 19-10.6 27.2l-49.1-10.4c.4 3.5 1 6.9 1.8 10.2l41.6 8.8c-2.2 2.9-4.6 5.7-7.1 8.3l-31.4-6.7c1.4 3.7 2.9 7.3 4.7 10.7l17.9 3.8c-3.5 2.7-7.1 5.2-11 7.5 12.7 17.5 31.7 30.7 54.6 35.6 48.9 10.4 97-20.8 107.4-69.7 10.5-48.7-20.7-96.8-69.6-107.2z"/><path class="st3" d="M172.1 308.5l-9.6-2 12.9-33.5-19.7 32-6.5-1.4 6.4-34.6-13.1 33.2-9-1.9 17.1-43.4 13.8 2.9-5.5 27.9 15.2-25.9 15 3.2m10.1 32.2c-1-.3-1.5-.5-2.1-.6-5.4-1.2-8.6.1-9.4 3.8-.5 2.3.5 4.1 2.6 4.5 4 .8 7.6-2.3 8.9-7.7zm3.6 17.9l-8-1.7 1-3.8c-3.1 2.5-6.6 3.2-11 2.3-5.2-1.1-8-6-6.7-11.9 1.9-8.9 9.2-12.7 19.9-10.5 1.1.2 2.5.6 3.9 1.1.5-1.1.8-1.7.9-2.3.5-2.4-1-3.7-5.5-4.6-4.7-1.1-8.8-.7-10.5-.5.2-.6 3.1-7.9 3.1-7.9 5.1-.4 8.4-.3 11.9.5 8.3 1.8 11.8 6.4 10.3 13.4-.4 1.9-1.1 4.1-2.3 7.1-2.1 5-6.3 16-7 18.8zM341 298.7l-3.6 9.4c-3-2.5-5.4-3.7-8.1-4.3-7.2-1.5-13.7 4.3-15.8 14.3-1.4 6.8 1.1 11.6 6.7 12.8 2.4.5 5.1.3 8.6-.6l-3.8 9.9c-3.8.2-6.1.1-8.7-.5-10.3-2.2-15.2-11-12.7-23 3.4-16 14.7-25.4 27.4-22.7 4.1 1 8.7 3.8 10 4.7zm9.7 30.7c-.9-.3-1.5-.5-2.1-.6-5.4-1.2-8.6.1-9.4 3.8-.5 2.3.5 4.1 2.6 4.5 4 .9 7.5-2.3 8.9-7.7zm3.5 17.9l-8-1.7 1-3.8c-3.1 2.5-6.6 3.2-11 2.3-5.2-1.1-8-6-6.7-11.9 1.9-8.9 9.2-12.7 19.9-10.5 1.1.2 2.5.6 3.9 1.1.5-1.1.8-1.7.9-2.3.5-2.4-1-3.7-5.5-4.6-4.6-1.1-8.8-.7-10.5-.5.2-.6 3.1-7.9 3.1-7.9 5.1-.4 8.4-.3 11.9.5 8.3 1.8 11.8 6.4 10.3 13.4-.4 1.9-1.1 4.1-2.3 7.1-1.9 5-6.2 16-7 18.8zm-108.6-23.8c-2.8.2-4.9.2-7.1-.3-4.9-1-7-4.5-5.9-9.7.3-1.7 2-5.7 3.4-9.4 1.3-3.3 9.5-24 9.5-24l9.5 2-2.3 5.3 4.9 1-3.2 8.6-5-1.1c-2.6 6.7-6 15.1-6.2 16.2-.4 1.9.5 2.9 2.7 3.4 1.1.2 2 .3 2.7.2l-3 7.8z"/><path class="st3" d="M274.9 329.4c-7.8.7-14.7-1.4-23-5.1-3.7-20.9 8.3-36.2 21.4-33.4 7.9 1.7 11.9 7.9 10.1 15.9-.6 2.7-1.4 5.2-3.1 8.7l-19-4c-1.8 5.2 1.2 8.1 6.7 9.3 3.4.7 6.7.7 10.4-.2l-3.5 8.8zm-.7-22.8c.2-.8 2.4-6.3-3-7.5-3.1-.7-5.7 1.3-7.5 5.3l10.5 2.2zm-60.4-15.3c-1 4.7.5 8.3 5.2 11.8 3.6 2.7 4 3.3 3.6 5-.5 2.3-2.4 2.9-6.2 2.1-2.9-.6-5.4-1.6-8.4-3.3 0 0-3 7.8-3.1 8.2 2.1.9 3.9 1.8 9.8 3.2 10.2 2.2 15.7-.7 17.4-9.1 1.1-5-.3-8.4-4.6-11.6-3.6-2.7-4-3.2-3.7-4.9.4-2 2.2-2.7 5.4-2 1.9.4 4.4 1.2 6.7 2l3.1-8.2c-2.4-.9-6.1-2-8.3-2.5-10.5-2.3-15.5 2.5-16.9 9.3zm191.3 66.8l-9.1-1.9 1.2-3.3c-3.3 2.3-6.2 2.9-9.7 2.1-7-1.5-10.3-8.5-8.4-17.6 2.6-12.2 11.9-20.9 20.4-19.1 3.8.8 6.2 2.9 8.1 6.9l4.9-12.6 9.5 2-16.9 43.5zm-12.4-11.6c4.4.9 8.6-3.4 10.2-10.7 1-4.7-.3-7.6-3.6-8.3-4.3-.9-8.5 3.6-10 10.7-1 4.9.2 7.6 3.4 8.3zm-22.1-33.9c-3.6 11-8.2 22.1-12.2 33l-1 2.3 9.6 2c8.1-21.6 9.9-25.8 15.3-24.1 1.8-4.4 4.3-8.1 5.9-9.8-3.9-1.6-6.5.1-10.5 3.8.6-1.8 1.4-3.6 1.8-5.4l-8.9-1.8zm-79.1-16.9c-3.6 11-8.2 22.1-12.2 33l-1 2.3 9.6 2c8.1-21.6 9.9-25.8 15.3-24.1 1.8-4.4 4.3-8.1 5.9-9.8-3.9-1.6-6.5.1-10.5 3.8.6-1.8 1.4-3.6 1.8-5.4l-8.9-1.8z"/><g><defs><path id="SVGID_1_" d="M128.9 135.1L484 210.6c10.9 2.3 17.9 13 15.5 23.9L451 462.6c-2.3 10.9-13 17.9-23.9 15.5L72 402.7c-10.9-2.3-17.9-13-15.5-23.9L105 150.7c2.3-10.9 13-17.9 23.9-15.6z"/></defs><clipPath id="SVGID_2_"><use xlink:href="#SVGID_1_" overflow="visible"/></clipPath><path class="st4" d="M443.5 267.9l-6.3-29.7-35.9-168.9-6.3-29.6c-2.3-10.9-13-17.9-23.9-15.5L16 99.6c-10.9 2.3-17.9 13-15.5 23.9l6.3 29.7 35.9 168.9 6.3 29.7c2.3 10.9 13 17.9 23.9 15.5L428 291.8c10.9-2.3 17.8-13 15.5-23.9z"/></g><g><path class="st3" d="M6.8 129.5l394.6-83.9 35.9 168.9-394.7 83.9L6.8 129.5z"/><path class="st5" d="M172.4 131.8l-20.1 106-26.7 5.7L89 170.1c-2.1-4.5-3.7-6.1-7.9-7.2-6.8-1.9-17.5-3-26.5-3v-3l42.9-9.1c5.4-1.2 11.2 1.3 13.6 7.4l22.6 54.3 12-71.7 26.7-5.7v-.3zm118 43.5c-5.3-25.8-41.2-19.4-43.3-31.1-.7-3.4 1.9-7.9 8.8-10.4 3.5-1.1 13.4-3.7 25.7-.9v-21.5c-6.6-1-14.7-1.4-24.5.7-24.9 5.3-39.5 22.2-35.7 41.2 2.8 14 17.1 19.1 27.6 21.8 10.9 2.6 14.7 5 15.6 9.3 1.4 6.6-5.7 11.1-13.1 12.7-12.6 2.8-20.8.9-27.2-.7v22.3c6.4 1.4 17.9 1.6 29-.8 26.8-5.7 41.4-22.4 37.1-42.6M363 193l23.3-4.9-41.1-93-21.5 4.6c-4.9 1-8.3 4.7-9.2 9.5l-18.6 98.2 26.4-5.6 2.2-15.6 32.3-6.9L363 193zm-35.5-28.4l5.5-39.3 15.3 34.8-20.8 4.5zm-119.2-40.4l-.1 101.7-25.1 5.3V129.5l25.2-5.3zM16 75.9L371.1.4C382-1.9 392.7 5.1 395 16l6.3 29.7L6.8 129.5.4 99.8C-1.9 89 5.1 78.2 16 75.9z"/><path class="st6" d="M42.6 298.4l394.6-83.9 6.3 29.7c2.3 10.9-4.6 21.6-15.5 23.9L72.9 343.6C62 345.9 51.3 339 49 328.1l-6.4-29.7z"/></g></svg>
